# xmcd CD database file
#
# Track frame offsets:
#	150
#	5157
#	26474
#	46501
#	65551
#	91276
#	116101
#	146402
#	178127
#	201263
#
# Disc length: 3030 seconds
#
# Revision: 0
# Processed by: cddbd v1.5.1PL2 Copyright (c) Steve Scherf et al.
# Submitted via: CDex 1.51
#
DISCID=870bd40a
DTITLE=Piotr Dziubek - Tchne
DYEAR=2000
DGENRE=Jazz
TTITLE0=inTro
TTITLE1=do do
TTITLE2=6 na osiem
TTITLE3=jazzave
TTITLE4=valetz
TTITLE5=ostinato
TTITLE6=smutny
TTITLE7=sfing
TTITLE8=zamba
TTITLE9=tchne
EXTD=YEAR: 2000
EXTT0=
EXTT1=
EXTT2=
EXTT3=
EXTT4=
EXTT5=
EXTT6=
EXTT7=
EXTT8=
EXTT9=
PLAYORDER=
